<svg width="121" height="18" viewBox="0 0 121 18" fill="none" xmlns="http://www.w3.org/2000/svg">
<g clip-path="url(#clip0_2_27)">
<path d="M0 0.591522H1.7109V5.74911C2.13026 5.21199 2.61539 4.79657 3.1663 4.50284C3.7172 4.20911 4.36641 4.06209 5.11393 4.06179C5.83486 4.06179 6.46746 4.18989 7.01171 4.4461C7.54512 4.69377 8.01027 5.06188 8.36856 5.51989C8.72919 5.98 8.99799 6.52639 9.17498 7.15906C9.35196 7.79173 9.44046 8.49162 9.44046 9.25872C9.44046 10.0768 9.33558 10.8152 9.12582 11.4741C8.91607 12.133 8.61465 12.6922 8.22156 13.1517C7.83408 13.6066 7.34581 13.9698 6.79353 14.214C6.23706 14.4633 5.61104 14.5879 4.91546 14.5879C4.32288 14.5874 3.7369 14.4666 3.19481 14.2332C2.63804 13.9969 2.1373 13.591 1.69259 13.0156V14.2816H0V0.591522ZM1.69259 9.60301C1.69259 10.2423 1.76786 10.7887 1.91842 11.2422C2.06897 11.6957 2.27556 12.0696 2.53818 12.3639C2.79155 12.6526 3.11593 12.8739 3.48093 13.007C3.84774 13.1413 4.24754 13.2085 4.68035 13.2085C5.08061 13.2121 5.47784 13.1405 5.85032 12.9975C6.21079 12.8572 6.52225 12.6303 6.78472 12.3169C7.04719 12.0034 7.25362 11.5975 7.40402 11.0993C7.55458 10.6009 7.63001 9.99379 7.63032 9.27793C7.63032 8.54911 7.54832 7.93875 7.38431 7.44684C7.22031 6.95493 7.00731 6.56188 6.7453 6.2677C6.48253 5.97382 6.1842 5.76283 5.85032 5.63473C5.52169 5.50801 5.17147 5.44297 4.81807 5.44303C4.39452 5.43913 3.97408 5.51393 3.57924 5.66344C3.20335 5.80754 2.86439 6.03015 2.58618 6.31562C2.30408 6.60197 2.08443 6.96593 1.92723 7.4075C1.77003 7.84907 1.69181 8.35718 1.69259 8.93183V9.60301Z" fill="#161616"/>
<path d="M19.8705 4.36853L14.01 18H12.2395L14.0684 14.0311L9.86011 4.36853H11.8462L14.914 12.0772L17.9817 4.36853H19.8705Z" fill="#161616"/>
<path d="M24.4316 0.591522H26.4769L29.4072 11.8462L32.4552 0.648942H34.4028L37.4314 11.8462L40.341 0.591522H42.2683L38.3744 14.2811H36.4669L33.3402 2.83428L30.2722 14.2811H28.4238L24.4316 0.591522Z" fill="#161616"/>
<path d="M51.4931 11.5012C51.3231 12.4598 50.8871 13.214 50.1854 13.7636C49.4836 14.3132 48.4774 14.5881 47.1668 14.5881C45.6195 14.5881 44.433 14.1311 43.6072 13.2172C42.7815 12.3033 42.3686 11.0283 42.3684 9.39227C42.3684 8.53595 42.4864 7.77533 42.7225 7.1104C42.9585 6.44548 43.2895 5.88952 43.7155 5.44252C44.1405 4.99607 44.6607 4.64595 45.2395 4.41688C45.8296 4.18042 46.472 4.06219 47.1668 4.06219C47.9534 4.06219 48.6286 4.18366 49.1923 4.42661C49.7561 4.66955 50.2182 5.00502 50.5786 5.43303C50.9391 5.86134 51.2079 6.36945 51.385 6.95736C51.5622 7.54527 51.6507 8.19045 51.6505 8.8929V9.73633H44.1C44.1 10.2347 44.1687 10.6981 44.3063 11.1264C44.4439 11.5547 44.6406 11.9254 44.8964 12.2386C45.1524 12.5523 45.4786 12.8047 45.85 12.9767C46.2303 13.1559 46.6695 13.2454 47.1677 13.2453C48.0199 13.2453 48.6426 13.0886 49.0358 12.7753C49.429 12.462 49.6979 12.037 49.8422 11.5003L51.4931 11.5012ZM49.9396 8.49096C49.9396 8.01819 49.8872 7.59003 49.7824 7.20648C49.6776 6.82293 49.5137 6.49371 49.2906 6.21882C49.0676 5.94423 48.7791 5.73015 48.4253 5.57658C48.0715 5.42301 47.6454 5.3463 47.1471 5.34645C46.2427 5.34645 45.538 5.61493 45.0332 6.15191C44.5284 6.68888 44.2301 7.46856 44.1384 8.49096H49.9396Z" fill="#161616"/>
<path d="M54.805 2.16355H50.1641V0.591522H61.2748V2.16355H56.6339V14.2804H54.805V2.16355Z" fill="#161616"/>
<path d="M60.023 4.36857H61.7142V5.9024C62.0941 5.35307 62.5399 4.93108 63.0513 4.63645C63.5628 4.34182 64.1069 4.1948 64.6836 4.19541C65.0376 4.19541 65.339 4.22103 65.5879 4.27227L65.3713 5.82531C65.2404 5.79999 65.109 5.77738 64.9772 5.75749C64.8339 5.73748 64.6893 5.72788 64.5445 5.72878C64.2164 5.73109 63.8909 5.78616 63.5811 5.89177C63.2531 6.00058 62.945 6.18271 62.6567 6.43816C62.3752 6.6725 62.1445 6.95934 61.9783 7.28182C61.8144 7.60147 61.7325 7.97214 61.7325 8.39382V14.2811H60.0216L60.023 4.36857Z" fill="#161616"/>
<path d="M75.6197 4.36867V14.2812H73.9482V12.8625C73.5285 13.4123 73.0434 13.8373 72.4928 14.1375C71.9422 14.4377 71.293 14.5879 70.5452 14.588C69.5488 14.588 68.7327 14.3579 68.0969 13.8978C67.4612 13.4377 66.9892 12.8114 66.681 12.0188C66.3729 11.2265 66.2189 10.3449 66.2189 9.37389C66.2189 7.72485 66.6221 6.42741 67.4285 5.48157C68.2349 4.53573 69.3393 4.06281 70.7418 4.06281C71.2792 4.06281 71.8299 4.17463 72.3938 4.39828C72.9577 4.62193 73.4755 5.02779 73.9473 5.61585V4.36867H75.6197ZM73.9677 9.02847C73.9677 8.23605 73.8792 7.61928 73.7022 7.17816C73.5252 6.73704 73.2337 6.36298 72.8276 6.05599C72.5392 5.82586 72.2475 5.66603 71.9526 5.57651C71.6367 5.48425 71.3084 5.43905 70.9787 5.44246C70.4278 5.44246 69.9263 5.57056 69.4742 5.82676C69.0221 6.08297 68.6648 6.49462 68.4025 7.06174C68.1398 7.63051 68.0084 8.38781 68.0084 9.33365C68.0084 10.3053 68.1459 11.0722 68.4211 11.6345C68.6962 12.1968 69.0503 12.5962 69.4832 12.8326C69.9161 13.0692 70.3683 13.1875 70.8401 13.1873C71.22 13.1873 71.5609 13.1458 71.8626 13.0628C72.1643 12.9797 72.4657 12.8231 72.7669 12.593C73.1709 12.3017 73.484 11.9067 73.6711 11.4521C73.8677 10.9858 73.966 10.401 73.966 9.69784L73.9677 9.02847Z" fill="#161616"/>
<path d="M77.8785 4.36868H79.57V5.88329C80.0675 5.23148 80.6181 4.76527 81.2217 4.48465C81.8167 4.2053 82.4689 4.06108 83.1293 4.06282C84.2828 4.06282 85.1383 4.36959 85.6955 4.98312C86.2527 5.59665 86.5314 6.4978 86.5314 7.68659V14.2812H84.8205V8.01121C84.8205 7.09099 84.65 6.44227 84.3092 6.06505C83.9684 5.68783 83.444 5.49944 82.736 5.49989C82.3507 5.50078 81.9683 5.56561 81.6052 5.69159C81.2263 5.8227 80.8809 6.03197 80.5925 6.30512C80.2646 6.58634 80.0155 6.88354 79.8452 7.19671C79.6748 7.50988 79.5898 7.91574 79.5901 8.41428V14.2812H77.879L77.8785 4.36868Z" fill="#161616"/>
<path d="M89.8101 11.386C89.9279 12.0763 90.2261 12.5585 90.7046 12.8328C91.1832 13.1071 91.8355 13.2445 92.6615 13.2452C93.5271 13.2452 94.14 13.1013 94.5002 12.8136C94.8603 12.5259 95.0403 12.1458 95.04 11.6733C95.0406 11.489 95.0172 11.3053 94.9704 11.1267C94.9239 10.9537 94.8324 10.7952 94.7047 10.6667C94.5735 10.5324 94.39 10.4141 94.1542 10.3118C93.9185 10.2094 93.6104 10.1266 93.2298 10.0631L91.9314 9.87141C91.3545 9.78204 90.8498 9.66698 90.4173 9.52622C89.9848 9.38545 89.6177 9.20332 89.316 8.97983C89.023 8.76511 88.7906 8.48145 88.6406 8.15538C88.4899 7.8294 88.4145 7.43635 88.4145 6.97624C88.4145 6.51613 88.5161 6.10711 88.7192 5.74918C88.9264 5.38679 89.2157 5.07528 89.565 4.83838C89.9253 4.58911 90.3513 4.39733 90.843 4.26305C91.3347 4.12877 91.869 4.06171 92.4459 4.06186C93.18 4.06186 93.7929 4.13216 94.2846 4.27277C94.7763 4.41338 95.1794 4.60509 95.4939 4.84787C95.799 5.07951 96.0476 5.37421 96.2218 5.71075C96.3935 6.04665 96.5258 6.40043 96.6159 6.76533L95.0625 7.014C94.9809 6.76828 94.8755 6.53068 94.7478 6.30439C94.6316 6.10253 94.4699 5.92906 94.2748 5.79711C94.0782 5.66283 93.8386 5.56057 93.556 5.49034C93.2735 5.42011 92.9228 5.38492 92.5039 5.38477C92.0321 5.38477 91.6388 5.42637 91.3239 5.50956C91.009 5.59275 90.7567 5.7045 90.5669 5.84481C90.3765 5.98587 90.2421 6.14253 90.1637 6.31479C90.0852 6.48673 90.0449 6.67296 90.0457 6.86118C90.0428 7.04618 90.0694 7.2305 90.1245 7.40757C90.1801 7.57276 90.2824 7.71929 90.4197 7.8303C90.5637 7.95192 90.7603 8.05742 91.0095 8.14679C91.2587 8.23616 91.5799 8.31279 91.9731 8.37669L93.4482 8.60682C94.6409 8.79747 95.4961 9.12955 96.0138 9.60308C96.5314 10.0766 96.7904 10.7668 96.7905 11.6738C96.7905 12.0958 96.7055 12.4824 96.5355 12.8337C96.3654 13.185 96.1098 13.4915 95.7687 13.7531C95.4274 14.015 95.0013 14.2196 94.4904 14.3666C93.9796 14.5137 93.383 14.5872 92.7007 14.5871C92.0844 14.5871 91.5109 14.5296 90.9801 14.4146C90.4493 14.2996 89.9806 14.1174 89.5741 13.8682C89.1694 13.6212 88.8321 13.2824 88.5907 12.8807C88.3416 12.4719 88.1973 11.9733 88.1581 11.3851L89.8101 11.386Z" fill="#161616"/>
<path d="M99.3432 3.52494C99.3432 2.80923 99.4808 2.22441 99.7561 1.77047C100.031 1.31654 100.395 0.981068 100.847 0.764049C101.3 0.546728 101.808 0.438068 102.372 0.438068C102.661 0.437419 102.95 0.453422 103.237 0.485993C103.53 0.52179 103.82 0.582762 104.102 0.668199L103.827 1.97189C103.632 1.91103 103.431 1.8693 103.227 1.84734C103.041 1.82832 102.855 1.81866 102.668 1.8184C102.209 1.8184 101.815 1.9367 101.488 2.17332C101.16 2.40993 100.996 2.84125 100.995 3.46729V4.36837H103.572V5.69128H100.995V14.2816H99.284V5.69128H97.6912V4.42534H98.5762C98.917 4.42534 99.1301 4.36777 99.2154 4.25263C99.3007 4.13749 99.3433 3.89492 99.3432 3.52494Z" fill="#161616"/>
<path d="M113.408 11.5012C113.238 12.4598 112.802 13.214 112.1 13.7636C111.398 14.3132 110.392 14.5881 109.082 14.5881C107.535 14.5881 106.348 14.1311 105.522 13.2172C104.696 12.3033 104.283 11.0283 104.283 9.39227C104.283 8.53595 104.401 7.77533 104.637 7.1104C104.873 6.44548 105.204 5.88952 105.631 5.44252C106.055 4.99598 106.576 4.64585 107.155 4.41688C107.744 4.18042 108.387 4.06219 109.082 4.06219C109.868 4.06219 110.543 4.18366 111.107 4.42661C111.671 4.66955 112.133 5.00502 112.494 5.43303C112.854 5.86134 113.123 6.36945 113.3 6.95736C113.477 7.54527 113.566 8.19045 113.566 8.8929V9.73633H106.014C106.014 10.2347 106.083 10.6981 106.22 11.1264C106.358 11.5547 106.555 11.9254 106.81 12.2386C107.066 12.5523 107.393 12.8048 107.764 12.9767C108.144 13.1559 108.583 13.2454 109.082 13.2453C109.934 13.2453 110.556 13.0886 110.95 12.7753C111.343 12.462 111.612 12.037 111.756 11.5003L113.408 11.5012ZM111.855 8.49096C111.855 8.01819 111.802 7.59003 111.697 7.20648C111.593 6.82293 111.429 6.49371 111.206 6.21882C110.983 5.94423 110.694 5.73015 110.341 5.57658C109.987 5.42301 109.561 5.3463 109.062 5.34645C108.158 5.34645 107.453 5.61493 106.948 6.15191C106.444 6.68888 106.145 7.46856 106.053 8.49096H111.855Z" fill="#161616"/>
<path d="M115.435 4.36857H117.126V5.9024C117.507 5.35307 117.952 4.93108 118.464 4.63645C118.975 4.34182 119.519 4.1948 120.096 4.19541C120.45 4.19541 120.751 4.22103 121 4.27227L120.784 5.82531C120.653 5.79999 120.521 5.77738 120.39 5.75749C120.246 5.73748 120.102 5.72789 119.957 5.72878C119.629 5.73111 119.303 5.78618 118.993 5.89177C118.665 6.00058 118.357 6.18271 118.069 6.43816C117.788 6.67288 117.557 6.96011 117.391 7.28295C117.227 7.6026 117.145 7.97327 117.145 8.39495V14.2811H115.434L115.435 4.36857Z" fill="#161616"/>
</g>
<defs>
<clipPath id="clip0_2_27">
<rect width="121" height="18" fill="white"/>
</clipPath>
</defs>
</svg>
